<svg width="90" height="26" viewBox="0 0 90 26" fill="none" xmlns="http://www.w3.org/2000/svg">
<path d="M25.4016 2C25.1566 7.14503 25.1973 20.3306 18.3856 21.5014C13.0146 22.4245 7.03452 20.7767 2 18.946" stroke="#90A57E" stroke-width="3.18915" stroke-linecap="round"/>
<path d="M39.7027 21.3669C36.6735 21.1212 38.4795 15.542 39.1199 13.7008C39.9983 12.8224 40.1135 12.0869 41.4511 12.0869C43.1894 12.0869 45.5289 12.0339 46.2032 14.0146C46.9072 16.0828 45.0887 18.9839 43.7823 20.4254C42.7461 21.5688 41.139 21.4833 39.7027 21.3669Z" stroke="#80849D" stroke-width="3.18915" stroke-linecap="round"/>
<path d="M45.172 10.0695C45.6014 12.8606 48.0565 28.5693 53.645 22.9808" stroke="#80849D" stroke-width="3.18915" stroke-linecap="round"/>
<path d="M62.9249 16.1217C60.3437 16.3368 59.5946 22.1738 62.2973 22.1738C65.358 22.1738 68.5093 19.8172 70.5909 17.7356" stroke="#811019" stroke-width="3.18915" stroke-linecap="round"/>
<path d="M77.8535 2V23.7877" stroke="#F5B83D" stroke-width="3.18915" stroke-linecap="round"/>
<path d="M84.7126 12.8939C82.6666 14.3199 80.7254 15.8966 78.5932 17.1976C77.8342 17.6608 74.9046 18.3086 76.7328 17.9821C78.2749 17.7068 79.5556 18.5101 80.902 19.1253C83.3548 20.246 85.8028 21.3268 88.3439 22.1738" stroke="#F5B83D" stroke-width="3.18915" stroke-linecap="round"/>
</svg>
